<svg xmlns="http://www.w3.org/2000/svg" viewBox="0 0 64 64">
  <g fill="none" stroke="#111827" stroke-width="3" stroke-linecap="round" stroke-linejoin="round">
    <ellipse cx="34" cy="34" rx="16" ry="12" fill="#facc15"/>
    <path d="M18 34h32M26 24c4 3 12 3 16 0M26 44c4-3 12-3 16 0"/>
    <path d="M12 30c-2 6-2 10 0 12 2 2 6 2 8 0M52 30c2 6 2 10 0 12-2 2-6 2-8 0"/>
    <path d="M34 14v6M30 12l8 2" />
    <ellipse cx="20" cy="26" rx="6" ry="4" fill="#fef3c7"/>
    <ellipse cx="48" cy="26" rx="6" ry="4" fill="#fef3c7"/>
  </g>
</svg>

